<svg width="188" height="114" viewBox="0 0 188 114" fill="none" xmlns="http://www.w3.org/2000/svg">
<path d="M40.5 4C40.5 2.61929 41.6193 1.5 43 1.5H184C185.381 1.5 186.5 2.61929 186.5 4V85C186.5 86.3807 185.381 87.5 184 87.5H46H40.5V81.5V4Z" fill="#39071F" stroke="white" stroke-width="3"/>
<path d="M45.5 87.5H45.1218L44.7888 87.6793L12.4839 105.074L39.4588 82.6536L40 82.2037V81.5V4C40 2.61929 41.1193 1.5 42.5 1.5H183.5C184.881 1.5 186 2.61929 186 4V85C186 86.3807 184.881 87.5 183.5 87.5H45.5Z" fill="#39071F" stroke="white" stroke-width="3"/>
<path d="M73.9434 46.36C74.9274 45.808 75.5274 44.656 75.5274 43.24V42.184C75.5274 39.64 73.9434 37.96 71.5434 37.96C69.2154 37.96 67.6554 39.64 67.6554 42.184V54.088C67.6554 54.664 68.0634 55.072 68.6154 55.072H71.8074C74.2314 55.072 75.8874 53.392 75.8874 50.8V49.696C75.8874 48.184 75.1434 46.96 73.9434 46.36ZM69.8154 42.064C69.8154 40.768 70.4634 39.976 71.5434 39.976C72.6954 39.976 73.3674 40.768 73.3674 42.064V43.408C73.3674 44.728 72.6714 45.52 71.5434 45.52H69.8154V42.064ZM73.6794 50.92C73.6794 52.264 72.9834 53.08 71.7594 53.08H69.8154V47.488H71.7594C72.9834 47.488 73.6794 48.304 73.6794 49.672V50.92ZM83.6276 55H85.1636C85.3796 55 85.4996 54.88 85.4996 54.664V40.216H89.1956V54.664C89.1956 54.88 89.3156 55 89.5076 55H91.0676C91.2596 55 91.3796 54.88 91.3796 54.664V39.472C91.3796 38.656 90.9236 38.2 90.1076 38.2H84.5876C83.7476 38.2 83.2916 38.656 83.2916 39.472V54.664C83.2916 54.88 83.4116 55 83.6276 55ZM94.4283 55H95.9643C96.1563 55 96.2763 54.88 96.2763 54.664V48.952H98.1723C100.668 48.952 102.276 47.272 102.276 44.824V42.376C102.276 39.76 100.644 37.936 98.1483 37.936C95.6763 37.936 94.1163 39.76 94.1163 42.376V54.664C94.1163 54.88 94.2363 55 94.4283 55ZM96.2763 46.936V42.28C96.2763 40.888 96.9963 39.976 98.1723 39.976C99.3483 39.976 100.092 40.888 100.092 42.28V44.872C100.092 46.168 99.3483 46.936 98.1003 46.936H96.2763ZM108.178 55.24C110.674 55.24 112.402 53.416 112.402 50.896V42.304C112.402 39.784 110.674 37.96 108.178 37.96C105.682 37.96 103.93 39.784 103.93 42.472V50.728C103.93 53.416 105.682 55.24 108.178 55.24ZM108.178 53.224C106.954 53.224 106.114 52.312 106.114 50.824V42.376C106.114 40.888 106.954 39.976 108.178 39.976C109.402 39.976 110.218 40.888 110.218 42.208V50.992C110.218 52.312 109.402 53.224 108.178 53.224ZM113.155 57.712H114.619C114.811 57.712 114.931 57.568 114.931 57.376V55H122.179V57.376C122.179 57.568 122.323 57.712 122.515 57.712H123.979C124.171 57.712 124.291 57.568 124.291 57.376V54.4C124.291 53.536 123.811 52.984 122.995 52.984L122.875 52.888V39.4C122.875 38.56 122.419 38.104 121.579 38.104H119.131C116.707 38.104 115.075 39.928 115.075 42.376V48.76C115.075 51.352 114.643 52.408 113.587 52.816C113.131 53.032 112.819 53.344 112.819 53.872V57.376C112.819 57.568 112.939 57.712 113.155 57.712ZM116.059 52.984C116.923 52.336 117.235 51.232 117.235 49.048V42.352C117.235 41.08 118.003 40.12 119.179 40.12H120.715V52.984H116.059ZM126.046 55H127.582C127.774 55 127.894 54.88 127.894 54.664V49.336H131.782V54.664C131.782 54.88 131.926 55 132.118 55H133.63C133.846 55 133.966 54.88 133.966 54.664V42.376C133.966 39.736 132.31 37.96 129.838 37.96C127.366 37.96 125.734 39.736 125.734 42.376V54.664C125.734 54.88 125.854 55 126.046 55ZM127.894 47.344V42.28C127.894 40.84 128.614 40 129.838 40C131.086 40 131.782 40.84 131.782 42.28V47.344H127.894ZM136.802 55H138.314C138.506 55 138.65 54.88 138.65 54.664V49.744C138.65 48.472 139.394 47.56 140.594 47.56H142.202V54.664C142.202 54.88 142.322 55 142.514 55H144.002C144.218 55 144.338 54.88 144.338 54.664V47.56H145.922C147.122 47.56 147.89 48.472 147.89 49.744V54.664C147.89 54.88 148.01 55 148.202 55H149.738C149.93 55 150.05 54.88 150.05 54.664V49.792C150.05 48.136 149.282 46.744 148.034 46.096L150.194 38.56C150.242 38.344 150.146 38.2 149.93 38.2H148.418C148.25 38.2 148.106 38.296 148.058 38.464L146.09 45.544H144.338V38.512C144.338 38.32 144.218 38.2 144.002 38.2H142.514C142.322 38.2 142.202 38.32 142.202 38.512V45.544H140.45L138.482 38.464C138.434 38.296 138.29 38.2 138.098 38.2H136.61C136.37 38.2 136.274 38.344 136.322 38.56L138.506 46.096C137.234 46.744 136.466 48.136 136.466 49.792V54.664C136.466 54.88 136.586 55 136.802 55ZM156.105 55.072H158.625C158.817 55.072 158.937 54.952 158.937 54.76V53.392C158.937 53.176 158.817 53.056 158.625 53.056H156.273C155.025 53.056 154.185 52.096 154.185 50.728V47.488H158.025C158.241 47.488 158.361 47.368 158.361 47.152V45.856C158.361 45.64 158.241 45.52 158.025 45.52H154.185V42.472C154.185 41.104 155.025 40.144 156.273 40.144H158.625C158.817 40.144 158.937 40.024 158.937 39.808V38.44C158.937 38.248 158.817 38.128 158.625 38.128H156.105C153.681 38.128 152.001 39.952 152.001 42.424V50.776C152.001 53.248 153.681 55.072 156.105 55.072Z" fill="white"/>
</svg>
