<svg width="202" height="114" viewBox="0 0 202 114" fill="none" xmlns="http://www.w3.org/2000/svg">
<path d="M40.5 4C40.5 2.61929 41.6193 1.5 43 1.5H198C199.381 1.5 200.5 2.61929 200.5 4V85C200.5 86.3807 199.381 87.5 198 87.5H46.6577H40.5V81.5V4Z" fill="#39071F" stroke="white" stroke-width="3"/>
<path d="M45.5025 87.5L45.123 87.4994L44.7888 87.6793L12.4839 105.074L39.4588 82.6536L40 82.2037V81.5V4.00629C40 2.62405 41.1217 1.50412 42.5039 1.5063L198.004 1.75082C199.383 1.75299 200.5 2.87164 200.5 4.25082V85.2505C200.5 86.6329 199.378 87.7528 197.996 87.7505L45.5025 87.5Z" fill="#39071F" stroke="white" stroke-width="3"/>
<path d="M51.8346 55.192C54.4266 55.192 56.1066 53.392 56.1066 50.872V49.696C56.1066 48.304 55.4106 47.032 54.1866 46.384C55.1466 45.76 55.7226 44.608 55.7226 43.216V42.208C55.7226 39.688 54.1626 37.936 51.8346 37.936C49.5306 37.936 48.0426 39.568 47.9226 42.136C47.9226 42.352 48.0426 42.472 48.2346 42.472H49.7706C49.9626 42.472 50.0826 42.352 50.1066 42.136C50.1786 40.696 50.7546 39.952 51.8346 39.952C52.9146 39.952 53.5626 40.768 53.5626 42.064V43.336C53.5626 44.608 52.9146 45.496 51.8106 45.496H50.2506C50.0586 45.496 49.9386 45.616 49.9386 45.832V47.128C49.9386 47.344 50.0586 47.464 50.2506 47.464H51.8826C53.1546 47.464 53.9466 48.424 53.9466 49.672V50.944C53.9466 52.24 53.1306 53.176 51.8586 53.176C50.7546 53.176 49.9866 52.36 49.8906 51.064C49.8906 50.848 49.7706 50.752 49.5786 50.752H48.0426C47.8266 50.752 47.7066 50.872 47.7066 51.064C47.8506 53.536 49.4586 55.192 51.8346 55.192ZM58.4869 55H60.0229C60.2149 55 60.3349 54.88 60.3349 54.664V49.336H64.2229V54.664C64.2229 54.88 64.3669 55 64.5589 55H66.0709C66.2869 55 66.4069 54.88 66.4069 54.664V42.376C66.4069 39.736 64.7509 37.96 62.2789 37.96C59.8069 37.96 58.1749 39.736 58.1749 42.376V54.664C58.1749 54.88 58.2949 55 58.4869 55ZM60.3349 47.344V42.28C60.3349 40.84 61.0549 40 62.2789 40C63.5269 40 64.2229 40.84 64.2229 42.28V47.344H60.3349ZM69.987 55.072H73.107C75.699 55.072 77.163 53.32 77.163 50.68V49.552C77.163 47.08 75.699 45.136 73.107 45.136H71.163V42.472C71.163 41.104 72.003 40.144 73.251 40.144H76.059C76.251 40.144 76.395 40 76.395 39.808V38.44C76.395 38.272 76.251 38.128 76.059 38.128H73.251C70.731 38.128 69.003 39.976 69.003 42.472V54.088C69.003 54.688 69.387 55.072 69.987 55.072ZM71.163 53.056V47.152H73.011C74.235 47.152 74.979 48.16 74.979 49.552V50.68C74.979 52.072 74.235 53.056 73.011 53.056H71.163ZM79.3228 55H80.8588C81.0508 55 81.1708 54.88 81.1708 54.664V48.952H83.0668C85.5628 48.952 87.1708 47.272 87.1708 44.824V42.376C87.1708 39.76 85.5388 37.936 83.0428 37.936C80.5708 37.936 79.0108 39.76 79.0108 42.376V54.664C79.0108 54.88 79.1308 55 79.3228 55ZM81.1708 46.936V42.28C81.1708 40.888 81.8908 39.976 83.0668 39.976C84.2428 39.976 84.9868 40.888 84.9868 42.28V44.872C84.9868 46.168 84.2428 46.936 82.9948 46.936H81.1708ZM93.073 55.24C95.569 55.24 97.297 53.416 97.297 50.896V42.304C97.297 39.784 95.569 37.96 93.073 37.96C90.577 37.96 88.825 39.784 88.825 42.472V50.728C88.825 53.416 90.577 55.24 93.073 55.24ZM93.073 53.224C91.849 53.224 91.009 52.312 91.009 50.824V42.376C91.009 40.888 91.849 39.976 93.073 39.976C94.297 39.976 95.113 40.888 95.113 42.208V50.992C95.113 52.312 94.297 53.224 93.073 53.224ZM105.636 38.512V45.496H101.94V38.512C101.94 38.32 101.82 38.2 101.628 38.2H100.116C99.8998 38.2 99.7798 38.32 99.7798 38.512V54.664C99.7798 54.88 99.8998 55 100.116 55H101.628C101.82 55 101.94 54.88 101.94 54.664V47.488H105.636V54.664C105.636 54.88 105.756 55 105.972 55H107.484C107.676 55 107.796 54.88 107.796 54.664V38.512C107.796 38.32 107.676 38.2 107.484 38.2H105.972C105.756 38.2 105.636 38.32 105.636 38.512ZM116.251 38.512V53.056H114.475C113.251 53.056 112.483 52.072 112.483 50.632V38.512C112.483 38.32 112.363 38.2 112.171 38.2H110.635C110.443 38.2 110.323 38.32 110.323 38.512V50.608C110.323 53.152 111.787 55.072 114.451 55.072H117.451C118.075 55.072 118.411 54.736 118.411 54.112V38.512C118.411 38.32 118.291 38.2 118.099 38.2H116.587C116.371 38.2 116.251 38.32 116.251 38.512ZM121.487 55H123.023C123.215 55 123.335 54.88 123.335 54.664V48.952H125.231C127.727 48.952 129.335 47.272 129.335 44.824V42.376C129.335 39.76 127.703 37.936 125.207 37.936C122.735 37.936 121.175 39.76 121.175 42.376V54.664C121.175 54.88 121.295 55 121.487 55ZM123.335 46.936V42.28C123.335 40.888 124.055 39.976 125.231 39.976C126.407 39.976 127.151 40.888 127.151 42.28V44.872C127.151 46.168 126.407 46.936 125.159 46.936H123.335ZM135.237 55.24C137.733 55.24 139.461 53.416 139.461 50.896V42.304C139.461 39.784 137.733 37.96 135.237 37.96C132.741 37.96 130.989 39.784 130.989 42.472V50.728C130.989 53.416 132.741 55.24 135.237 55.24ZM135.237 53.224C134.013 53.224 133.173 52.312 133.173 50.824V42.376C133.173 40.888 134.013 39.976 135.237 39.976C136.461 39.976 137.277 40.888 137.277 42.208V50.992C137.277 52.312 136.461 53.224 135.237 53.224ZM148.088 46.36C149.072 45.808 149.672 44.656 149.672 43.24V42.184C149.672 39.64 148.088 37.96 145.688 37.96C143.36 37.96 141.8 39.64 141.8 42.184V54.088C141.8 54.664 142.208 55.072 142.76 55.072H145.952C148.376 55.072 150.032 53.392 150.032 50.8V49.696C150.032 48.184 149.288 46.96 148.088 46.36ZM143.96 42.064C143.96 40.768 144.608 39.976 145.688 39.976C146.84 39.976 147.512 40.768 147.512 42.064V43.408C147.512 44.728 146.816 45.52 145.688 45.52H143.96V42.064ZM147.824 50.92C147.824 52.264 147.128 53.08 145.904 53.08H143.96V47.488H145.904C147.128 47.488 147.824 48.304 147.824 49.672V50.92ZM152.378 55H153.914C154.106 55 154.226 54.88 154.226 54.664V49.336H158.114V54.664C158.114 54.88 158.258 55 158.45 55H159.962C160.178 55 160.298 54.88 160.298 54.664V42.376C160.298 39.736 158.642 37.96 156.17 37.96C153.698 37.96 152.066 39.736 152.066 42.376V54.664C152.066 54.88 152.186 55 152.378 55ZM154.226 47.344V42.28C154.226 40.84 154.946 40 156.17 40C157.418 40 158.114 40.84 158.114 42.28V47.344H154.226ZM168.894 38.512V45.496H165.198V38.512C165.198 38.32 165.078 38.2 164.886 38.2H163.374C163.158 38.2 163.038 38.32 163.038 38.512V54.664C163.038 54.88 163.158 55 163.374 55H164.886C165.078 55 165.198 54.88 165.198 54.664V47.488H168.894V54.664C168.894 54.88 169.014 55 169.23 55H170.742C170.934 55 171.054 54.88 171.054 54.664V38.512C171.054 38.32 170.934 38.2 170.742 38.2H169.23C169.014 38.2 168.894 38.32 168.894 38.512ZM179.792 38.512V45.496H176.096V38.512C176.096 38.32 175.976 38.2 175.784 38.2H174.272C174.056 38.2 173.936 38.32 173.936 38.512V54.664C173.936 54.88 174.056 55 174.272 55H175.784C175.976 55 176.096 54.88 176.096 54.664V47.488H179.792V54.664C179.792 54.88 179.912 55 180.128 55H181.64C181.832 55 181.952 54.88 181.952 54.664V38.512C181.952 38.32 181.832 38.2 181.64 38.2H180.128C179.912 38.2 179.792 38.32 179.792 38.512ZM188.675 55.24C191.171 55.24 192.899 53.416 192.899 50.896V42.304C192.899 39.784 191.171 37.96 188.675 37.96C186.179 37.96 184.427 39.784 184.427 42.472V50.728C184.427 53.416 186.179 55.24 188.675 55.24ZM188.675 53.224C187.451 53.224 186.611 52.312 186.611 50.824V42.376C186.611 40.888 187.451 39.976 188.675 39.976C189.899 39.976 190.715 40.888 190.715 42.208V50.992C190.715 52.312 189.899 53.224 188.675 53.224Z" fill="white"/>
</svg>
