<svg width="188" height="114" viewBox="0 0 188 114" fill="none" xmlns="http://www.w3.org/2000/svg">
<path d="M40.5 4C40.5 2.61929 41.6193 1.5 43 1.5H184C185.381 1.5 186.5 2.61929 186.5 4V85C186.5 86.3807 185.381 87.5 184 87.5H46H40.5V81.5V4Z" fill="#39071F" stroke="white" stroke-width="3"/>
<path d="M45.5 87.5H45.1218L44.7888 87.6793L12.4839 105.074L39.4588 82.6536L40 82.2037V81.5V4C40 2.61929 41.1193 1.5 42.5 1.5H183.5C184.881 1.5 186 2.61929 186 4V85C186 86.3807 184.881 87.5 183.5 87.5H45.5Z" fill="#39071F" stroke="white" stroke-width="3"/>
<path d="M77.8463 55H79.3823C79.5983 55 79.7183 54.88 79.7183 54.664V40.216H83.4143V54.664C83.4143 54.88 83.5343 55 83.7263 55H85.2863C85.4783 55 85.5983 54.88 85.5983 54.664V39.472C85.5983 38.656 85.1423 38.2 84.3263 38.2H78.8063C77.9663 38.2 77.5103 38.656 77.5103 39.472V54.664C77.5103 54.88 77.6303 55 77.8463 55ZM88.6471 55H90.1831C90.3751 55 90.4951 54.88 90.4951 54.664V48.952H92.3911C94.8871 48.952 96.4951 47.272 96.4951 44.824V42.376C96.4951 39.76 94.8631 37.936 92.3671 37.936C89.8951 37.936 88.3351 39.76 88.3351 42.376V54.664C88.3351 54.88 88.4551 55 88.6471 55ZM90.4951 46.936V42.28C90.4951 40.888 91.2151 39.976 92.3911 39.976C93.5671 39.976 94.3111 40.888 94.3111 42.28V44.872C94.3111 46.168 93.5671 46.936 92.3191 46.936H90.4951ZM102.397 55.24C104.893 55.24 106.621 53.416 106.621 50.896V42.304C106.621 39.784 104.893 37.96 102.397 37.96C99.9012 37.96 98.1492 39.784 98.1492 42.472V50.728C98.1492 53.416 99.9012 55.24 102.397 55.24ZM102.397 53.224C101.173 53.224 100.333 52.312 100.333 50.824V42.376C100.333 40.888 101.173 39.976 102.397 39.976C103.621 39.976 104.437 40.888 104.437 42.208V50.992C104.437 52.312 103.621 53.224 102.397 53.224ZM107.373 57.712H108.837C109.029 57.712 109.149 57.568 109.149 57.376V55H116.397V57.376C116.397 57.568 116.541 57.712 116.733 57.712H118.197C118.389 57.712 118.509 57.568 118.509 57.376V54.4C118.509 53.536 118.029 52.984 117.213 52.984L117.093 52.888V39.4C117.093 38.56 116.637 38.104 115.797 38.104H113.349C110.925 38.104 109.293 39.928 109.293 42.376V48.76C109.293 51.352 108.861 52.408 107.805 52.816C107.349 53.032 107.037 53.344 107.037 53.872V57.376C107.037 57.568 107.157 57.712 107.373 57.712ZM110.277 52.984C111.141 52.336 111.453 51.232 111.453 49.048V42.352C111.453 41.08 112.221 40.12 113.397 40.12H114.933V52.984H110.277ZM120.264 55H121.8C121.992 55 122.112 54.88 122.112 54.664V49.336H126V54.664C126 54.88 126.144 55 126.336 55H127.848C128.064 55 128.184 54.88 128.184 54.664V42.376C128.184 39.736 126.528 37.96 124.056 37.96C121.584 37.96 119.952 39.736 119.952 42.376V54.664C119.952 54.88 120.072 55 120.264 55ZM122.112 47.344V42.28C122.112 40.84 122.832 40 124.056 40C125.304 40 126 40.84 126 42.28V47.344H122.112ZM136.78 38.512V45.496H133.084V38.512C133.084 38.32 132.964 38.2 132.772 38.2H131.26C131.044 38.2 130.924 38.32 130.924 38.512V54.664C130.924 54.88 131.044 55 131.26 55H132.772C132.964 55 133.084 54.88 133.084 54.664V47.488H136.78V54.664C136.78 54.88 136.9 55 137.116 55H138.628C138.82 55 138.94 54.88 138.94 54.664V38.512C138.94 38.32 138.82 38.2 138.628 38.2H137.116C136.9 38.2 136.78 38.32 136.78 38.512ZM145.663 55.24C148.159 55.24 149.887 53.416 149.887 50.896V42.304C149.887 39.784 148.159 37.96 145.663 37.96C143.167 37.96 141.415 39.784 141.415 42.472V50.728C141.415 53.416 143.167 55.24 145.663 55.24ZM145.663 53.224C144.439 53.224 143.599 52.312 143.599 50.824V42.376C143.599 40.888 144.439 39.976 145.663 39.976C146.887 39.976 147.703 40.888 147.703 42.208V50.992C147.703 52.312 146.887 53.224 145.663 53.224Z" fill="white"/>
</svg>
